<svg xmlns="http://www.w3.org/2000/svg" viewBox="0 0 32 32">
  <defs>
    <linearGradient id="gitGradient" x1="0%" y1="0%" x2="100%" y2="100%">
      <stop offset="0%" style="stop-color:#6ee7b7"/>
      <stop offset="100%" style="stop-color:#10b981"/>
    </linearGradient>
  </defs>
  <path fill="url(#gitGradient)" d="M31.4 14.6L17.4.6c-.8-.8-2-.8-2.8 0l-2.9 2.9 3.7 3.7c.9-.3 1.9-.1 2.6.6.7.7.9 1.7.6 2.6l3.5 3.5c.9-.3 2 0 2.6.6 1 1 1 2.5 0 3.5s-2.5 1-3.5 0c-.8-.8-1-1.9-.6-2.8l-3.3-3.3v8.6c.2.1.5.3.7.5 1 1 1 2.5 0 3.5s-2.5 1-3.5 0-1-2.5 0-3.5c.3-.3.6-.5.9-.6v-8.7c-.3-.1-.6-.3-.9-.6-.8-.8-1-1.9-.6-2.8l-3.6-3.6-9.5 9.5c-.8.8-.8 2 0 2.8l14 14c.8.8 2 .8 2.8 0l13.9-13.9c.8-.8.8-2 0-2.8z"/>
</svg>
